<svg width="64" height="64" viewBox="0 0 64 32" fill="none" xmlns="http://www.w3.org/2000/svg">
<path d="M54.5028 16.1066V11.3301L40.4443 3.23706C35.2714 0.254315 31.7672 0.254315 26.5944 3.23706L0 18.5471V24.0328L26.5944 39.3428C29.1808 40.8238 31.3501 41.5747 33.5193 41.5747C35.6886 41.5747 37.8579 40.8238 40.4443 39.3428L62.867 26.4315V20.9458L54.5028 16.1066Z" fill="white"/>
<path d="M1.56445 23.1361C1.56445 23.1361 23.8203 10.3083 27.3662 8.26414C32.0385 5.57341 34.9795 5.57341 39.6518 8.26414C42.5094 9.91195 44.4492 11.0174 44.4492 11.0174L37.5659 14.9805C37.5659 14.9805 36.7525 14.5008 36.6064 14.4173C34.5415 13.2284 32.4974 13.2284 30.4115 14.4173C28.6594 15.4185 8.4477 27.0784 8.4477 27.0784L1.56445 23.1361Z" fill="#1C40FF"/>
<path d="M29.2636 21.6133L36.1469 25.5764L27.8453 30.3529C27.8453 30.3529 29.7225 31.4376 30.39 31.813C32.4549 33.0019 34.5199 33.0019 36.6057 31.813C38.1075 30.937 41.9455 28.7468 41.9455 28.7468L48.8287 32.7099C48.8287 32.7099 42.5087 36.3601 39.6511 38.0079C34.9788 40.6987 32.0378 40.6987 27.3655 38.0079C22.1926 35.0252 14.0996 30.3529 14.0996 30.3529L29.2636 21.6133Z" fill="#1C40FF"/>
<path d="M48.7864 18.2969L52.9373 15.919L46.054 11.9351L30.8691 20.6956L37.7524 24.6586L41.9032 22.2599L54.4391 29.4978L61.3223 25.5347L48.7864 18.2969Z" fill="#1C40FF"/>
<path d="M1.56445 21.3007C1.56445 21.3007 23.8203 8.4728 27.3662 6.42869C32.0385 3.73796 34.9795 3.73796 39.6518 6.42869C42.5094 8.0765 44.4492 9.18199 44.4492 9.18199L37.5659 13.1451C37.5659 13.1451 36.7525 12.6653 36.6064 12.5819C34.5415 11.393 32.4974 11.393 30.4115 12.5819C28.6594 13.5831 8.4477 25.2429 8.4477 25.2429L1.56445 21.3007Z" fill="#00FFB3"/>
<path d="M29.2636 19.7778L36.1469 23.7409L27.8453 28.5175C27.8453 28.5175 29.7225 29.6021 30.39 29.9776C32.4549 31.1665 34.5199 31.1665 36.6057 29.9776C38.1075 29.1015 41.9455 26.9114 41.9455 26.9114L48.8287 30.8745C48.8287 30.8745 42.5087 34.5247 39.6511 36.1725C34.9788 38.8632 32.0378 38.8632 27.3655 36.1725C22.1926 33.1897 14.0996 28.5175 14.0996 28.5175L29.2636 19.7778Z" fill="#00FFB3"/>
<path d="M48.7864 16.4614L52.9373 14.0627L46.054 10.0996L30.8691 18.8601L37.7524 22.8232L41.9032 20.4245L54.4391 27.6415L61.3223 23.6784L48.7864 16.4614Z" fill="#00FFB3"/>
<path d="M1.56445 19.4437C1.56445 19.4437 23.8203 6.61587 27.3662 4.57175C32.0385 1.88103 34.9795 1.88103 39.6518 4.57175C42.5094 6.21956 44.4492 7.32505 44.4492 7.32505L37.5659 11.2881C37.5659 11.2881 36.7525 10.8084 36.6064 10.725C34.5415 9.53604 32.4974 9.53604 30.4115 10.725C28.6594 11.7262 8.4477 23.386 8.4477 23.386L1.56445 19.4437Z" fill="black"/>
<path d="M29.2636 17.9214L36.1469 21.8845L27.8453 26.661C27.8453 26.661 29.7225 27.7457 30.39 28.1211C32.4549 29.31 34.5199 29.31 36.6057 28.1211C38.1075 27.2451 41.9455 25.0549 41.9455 25.0549L48.8287 29.018C48.8287 29.018 42.5087 32.6682 39.6511 34.316C34.9788 37.0068 32.0378 37.0068 27.3655 34.316C22.1926 31.3333 14.0996 26.661 14.0996 26.661L29.2636 17.9214Z" fill="black"/>
<path d="M48.7864 14.626L52.9373 12.2272L46.054 8.26416L30.8691 17.0038L37.7524 20.9669L41.9032 18.589L54.4391 25.806L61.3223 21.8429L48.7864 14.626Z" fill="black"/>
<path d="M81.4921 15.252V18.1305C78.9682 17.7342 77.5916 18.9023 77.5916 22.0519V27.1622H74.5254V15.4189H77.6124V17.171C78.3216 15.7735 79.6565 14.9809 81.4921 15.252Z" fill="white"/>
<path d="M82.6172 21.2799C82.6172 17.7757 85.2662 15.085 88.8538 15.085C92.1077 15.085 94.131 17.1708 94.6107 18.9438L91.7531 19.7572C91.5028 18.7977 90.3973 17.7965 88.8747 17.7965C86.914 17.7965 85.6625 19.4026 85.6625 21.259C85.6625 23.0946 86.914 24.7424 88.8747 24.7424C90.3973 24.7424 91.5028 23.8246 91.7531 22.8651L94.6107 23.6577C94.1518 25.4307 92.1077 27.4957 88.8955 27.4957C85.2662 27.5165 82.6172 24.8049 82.6172 21.2799Z" fill="white"/>
<path d="M104.666 26.8073C103.727 27.1827 102.914 27.3705 101.913 27.3705C99.222 27.3705 97.9913 25.7018 97.9913 23.1779V18.1094H96.0098V15.4186H97.9913V11.6016H101.078V15.4186H104.52V18.1094H101.078V23.1571C101.078 24.0957 101.537 24.638 102.518 24.638C103.06 24.638 103.456 24.5337 103.915 24.3043L104.666 26.8073Z" fill="white"/>
<path d="M106.771 25.472C106.771 24.4917 107.585 23.6782 108.628 23.6782C109.629 23.6782 110.443 24.4917 110.443 25.472C110.443 26.5358 109.629 27.3493 108.628 27.3493C107.585 27.3701 106.771 26.5358 106.771 25.472Z" fill="white"/>
<path d="M120.559 25.8268C119.808 26.8071 118.452 27.3912 116.679 27.3495C115.303 27.3077 114.218 26.7863 113.592 26.1397C112.925 25.4722 112.508 24.7213 112.508 23.6575C112.508 21.7177 113.697 20.2993 116.659 19.9239C117.806 19.7779 120.559 19.4859 120.559 19.4859V19.2356C120.559 18.1718 119.6 17.4418 117.868 17.4418C116.659 17.4418 115.574 17.7546 114.761 18.5681L112.967 17.0872C114.176 15.4811 115.887 14.9805 118.077 14.9805C121.414 14.9805 123.333 16.4614 123.333 19.9656V27.2035H120.559V25.8268ZM120.538 21.6343C120.538 21.6343 117.91 21.968 116.909 22.0932C115.72 22.26 115.282 22.7815 115.282 23.5741C115.282 24.2207 115.908 25.0759 117.222 25.055C118.265 25.0342 119.016 24.8047 119.6 24.3876C120.267 23.887 120.538 23.1152 120.538 22.3643V21.6343Z" fill="white"/>
<path d="M125.439 13.4162C125.439 12.415 126.253 11.6016 127.275 11.6016C128.297 11.6016 129.111 12.415 129.111 13.4162C129.111 14.4592 128.297 15.2726 127.275 15.2726C126.253 15.2726 125.439 14.4592 125.439 13.4162Z" fill="white"/>
<path d="M128.819 16.5244H125.732V27.1622H128.819V16.5244Z" fill="white"/>
</svg>
